<?xml version="1.0" standalone="no"?>
<!DOCTYPE svg PUBLIC "-//W3C//DTD SVG 20010904//EN"
 "http://www.w3.org/TR/2001/REC-SVG-20010904/DTD/svg10.dtd">
<svg version="1.0" xmlns="http://www.w3.org/2000/svg"
 width="460.000000pt" height="460.000000pt" viewBox="0 0 460.000000 460.000000"
 preserveAspectRatio="xMidYMid meet">
<metadata>
Created by potrace 1.14, written by Peter Selinger 2001-2017
</metadata>
<g transform="translate(0.000000,460.000000) scale(0.100000,-0.100000)"
fill="#000000" stroke="none">
<path d="M289 4548 c-4 -271 3 -398 22 -398 10 0 17 55 25 210 3 69 7 145 9
170 3 59 -2 70 -31 70 -22 0 -24 -4 -25 -52z"/>
<path d="M1373 4585 c-17 -19 -16 -22 8 -28 18 -5 20 -11 14 -36 -8 -39 2 -39
43 -1 18 16 45 33 60 36 15 4 32 11 39 16 14 11 99 13 142 3 19 -4 32 -1 41
10 11 13 -6 15 -161 15 -137 -1 -177 -4 -186 -15z"/>
<path d="M1774 4470 c2 -71 1 -129 -2 -129 -21 3 -32 -3 -32 -16 0 -8 -4 -15
-9 -15 -5 0 -11 7 -15 15 -8 21 -28 19 -24 -2 2 -12 -4 -19 -19 -21 -13 -2
-31 -14 -42 -28 -10 -13 -24 -24 -29 -24 -6 0 -23 -11 -37 -24 -14 -13 -41
-27 -59 -30 -35 -7 -82 -48 -72 -64 3 -6 15 -8 26 -5 27 7 25 -3 -5 -33 -14
-14 -25 -34 -25 -46 0 -14 -5 -18 -15 -14 -8 3 -15 1 -15 -4 0 -5 -13 -15 -30
-23 -33 -17 -56 -3 -40 23 6 8 10 22 10 30 0 11 -3 11 -12 2 -18 -18 -24 -15
-38 19 -13 30 -18 73 -21 171 0 26 -7 52 -13 57 -16 14 -68 -9 -61 -26 2 -7 1
-13 -4 -13 -16 0 -18 -70 -2 -83 11 -9 15 -9 18 1 3 6 9 12 14 12 15 0 10 -92
-6 -110 -8 -9 -16 -37 -18 -61 -1 -24 -7 -50 -14 -57 -14 -15 -33 -76 -34
-112 0 -38 -32 -108 -56 -125 -18 -13 -25 -13 -47 -1 -34 17 -69 56 -102 112
-22 38 -26 53 -22 100 4 51 9 59 54 100 l49 45 -4 67 c-6 114 -5 184 2 255 7
66 6 68 -18 77 -14 5 -30 21 -37 34 -13 31 -79 55 -128 48 -37 -5 -90 -37 -90
-53 0 -13 -80 -181 -95 -199 -18 -21 -33 -124 -29 -195 2 -33 -2 -87 -7 -120
-6 -33 -12 -73 -14 -90 -6 -74 -27 -145 -51 -170 -14 -15 -32 -45 -41 -66 -8
-21 -18 -39 -22 -39 -3 0 -12 -14 -20 -32 -11 -24 -11 -33 -3 -36 18 -6 44
-33 38 -40 -3 -2 -11 0 -18 6 -9 7 -18 7 -31 -2 -24 -19 -21 -29 7 -22 31 8
42 -7 54 -72 15 -85 -5 -161 -44 -162 -16 0 -24 -61 -14 -105 7 -33 5 -43 -17
-72 -17 -22 -34 -33 -52 -33 -31 0 -45 -9 -55 -34 -6 -17 -9 -16 -32 15 -16
22 -23 41 -19 54 4 11 7 27 8 35 1 8 12 23 24 33 13 11 20 24 16 33 -5 13 -7
13 -15 2 -5 -8 -6 -2 -2 17 4 17 10 35 14 40 4 6 10 20 12 32 4 16 1 21 -12
20 -10 0 -16 -7 -13 -13 2 -7 -5 -17 -16 -24 -16 -8 -20 -17 -15 -35 4 -15 2
-25 -5 -25 -6 0 -11 -6 -11 -14 0 -21 -20 -30 -33 -16 -9 10 -9 14 1 17 17 7
15 33 -3 33 -8 0 -15 -4 -15 -10 0 -5 -9 -10 -21 -10 -16 0 -19 4 -14 20 5 14
2 20 -9 20 -9 0 -16 5 -16 10 0 6 -4 10 -9 10 -5 0 -12 -18 -16 -39 -4 -27
-13 -41 -26 -44 -25 -7 -24 -39 1 -62 22 -20 26 -55 8 -73 -9 -9 -7 -13 5 -18
23 -8 21 -21 -2 -29 -11 -3 -18 -12 -15 -20 3 -7 1 -16 -4 -19 -5 -3 -12 3
-15 14 -3 10 0 21 7 23 8 3 8 8 -1 18 -10 9 -13 10 -13 1 0 -19 -28 -14 -40 7
-15 29 -12 83 6 109 14 20 14 23 -1 28 -8 4 -22 1 -30 -6 -18 -15 -20 -77 -2
-83 9 -3 9 -7 -1 -19 -9 -12 -12 -296 -10 -1369 l3 -1354 27 51 c16 30 41 60
60 71 18 11 56 40 83 64 70 62 125 103 160 118 17 7 57 30 90 51 33 21 75 41
93 45 18 4 70 24 115 45 45 21 116 51 157 65 41 15 109 44 150 65 41 21 107
50 145 63 93 33 228 87 240 97 6 4 32 10 59 14 27 3 57 12 65 20 32 27 121 86
131 86 18 0 10 22 -10 27 -11 3 -20 12 -20 19 0 18 -21 18 -56 -1 -22 -11 -30
-12 -36 -2 -13 20 -9 30 7 17 12 -10 16 -9 20 4 3 9 7 23 10 32 3 9 11 14 20
10 9 -3 15 0 15 9 0 21 33 89 48 98 6 4 12 19 12 32 0 14 5 25 10 25 6 0 10
-9 10 -19 0 -11 6 -22 13 -24 9 -4 8 -8 -3 -16 -13 -9 -12 -11 1 -16 16 -6 23
-65 7 -65 -11 0 -10 -57 2 -65 5 -3 8 -21 6 -41 -1 -19 1 -37 6 -40 4 -3 8
-14 8 -24 0 -10 7 -25 15 -34 8 -8 15 -17 15 -20 0 -3 -7 -6 -15 -6 -18 0 -20
-20 -2 -20 6 0 3 -7 -8 -15 -19 -15 -19 -16 -2 -45 10 -17 15 -30 11 -30 -3 0
-1 -7 6 -15 15 -19 7 -30 -15 -21 -9 3 -13 11 -9 17 4 7 0 10 -10 7 -27 -5
-23 -22 9 -38 40 -21 44 -48 8 -52 -18 -2 -27 -8 -25 -17 2 -9 -4 -12 -18 -8
-16 4 -20 2 -16 -8 3 -8 -3 -19 -12 -25 -11 -6 -13 -12 -6 -17 6 -5 14 -15 17
-23 4 -11 6 -10 6 5 1 15 4 16 13 7 9 -9 9 -15 0 -24 -23 -23 -14 -58 18 -70
17 -5 29 -15 27 -22 -7 -19 23 -68 38 -62 9 3 12 0 9 -8 -3 -8 -1 -17 5 -21
22 -13 11 -25 -16 -19 -25 6 -26 5 -15 -8 9 -12 10 -18 2 -23 -7 -4 -10 -16
-7 -26 3 -11 2 -19 -3 -19 -4 0 -10 10 -14 23 -4 16 -8 18 -14 9 -6 -9 -13 -7
-28 10 -34 39 -56 79 -50 94 3 7 0 13 -6 11 -16 -3 -40 67 -42 120 0 24 -4 43
-8 43 -5 0 -8 5 -8 10 0 6 13 10 28 10 16 0 29 6 30 13 0 6 3 35 6 62 2 28 8
95 11 150 4 55 9 103 11 107 3 5 1 8 -3 8 -21 0 -94 -86 -105 -124 -17 -58
-14 -190 6 -266 38 -143 138 -293 240 -363 23 -16 50 -36 61 -46 40 -37 86
-54 112 -42 15 7 22 7 18 1 -4 -6 5 -10 19 -10 14 0 26 -5 26 -11 0 -9 -16 -7
-57 8 -7 3 -13 1 -13 -5 0 -13 17 -19 76 -27 27 -4 55 -12 62 -18 18 -14 279
-22 322 -9 26 8 29 10 12 11 -23 1 -23 1 -3 22 12 13 24 18 32 13 9 -5 10 -2
6 10 -5 13 3 22 40 38 43 19 45 22 28 34 -17 12 -17 14 -2 14 10 0 17 8 17 19
0 10 11 26 25 35 19 13 24 22 19 38 -4 15 -2 19 7 15 8 -2 13 -10 12 -16 -4
-17 14 -13 21 5 8 20 8 20 -31 28 -17 4 -34 3 -37 -2 -5 -9 -64 -7 -74 3 -2 2
-8 21 -12 42 -4 21 -11 46 -15 56 -5 12 -2 17 9 17 22 0 20 27 -1 33 -17 4
-17 5 0 6 10 0 25 8 34 17 14 14 14 16 -3 29 -11 8 -23 15 -29 16 -31 4 -42 6
-63 14 l-23 8 23 11 c15 8 22 19 20 34 -2 16 3 23 22 28 14 3 26 10 26 15 0
14 -38 11 -43 -3 -3 -7 -6 -3 -6 10 -1 12 4 22 9 22 6 0 10 6 10 14 0 8 9 18
21 21 15 5 17 10 9 20 -8 10 -2 18 27 36 21 13 43 23 50 21 6 -1 14 2 18 8 3
6 0 7 -9 4 -19 -7 -19 -4 -5 33 8 22 12 24 20 13 8 -13 12 -12 24 4 8 11 15
25 15 31 0 6 16 19 35 29 39 21 47 40 13 32 -15 -4 -12 -1 7 9 17 8 26 14 22
15 -15 0 21 30 37 30 9 0 23 11 32 25 9 14 20 23 24 20 5 -3 6 4 3 15 -4 13 1
22 13 26 34 13 47 26 32 35 -10 7 -11 12 0 29 6 11 18 30 25 42 14 26 20 35
47 67 12 14 23 36 27 50 3 14 11 33 18 41 7 8 14 21 16 28 2 7 3 -79 1 -191
-4 -239 -4 -240 90 -250 64 -6 131 -41 180 -93 18 -19 39 -34 48 -34 9 0 26
-7 38 -16 25 -18 229 -124 237 -124 4 0 3 5 0 10 -3 6 1 10 10 10 9 0 14 4 11
9 -4 5 12 12 35 16 30 5 44 3 50 -6 5 -8 9 -9 9 -4 0 6 -5 16 -12 23 -9 9 -9
12 1 12 7 0 24 9 38 20 25 20 77 27 86 12 6 -9 -27 -52 -40 -52 -21 0 -62 -26
-76 -49 -9 -15 -17 -20 -21 -12 -4 6 -2 11 3 11 6 0 11 5 11 12 0 9 -3 9 -12
0 -7 -7 -23 -12 -37 -13 -16 0 -20 -3 -11 -6 8 -3 17 -9 20 -12 13 -15 260
-141 278 -141 3 0 13 -6 21 -14 9 -8 41 -28 71 -43 73 -39 108 -61 149 -96 18
-15 44 -32 57 -37 13 -5 52 -32 88 -60 35 -27 69 -50 75 -50 13 0 283 -274
293 -298 3 -9 7 94 7 229 l1 247 -22 6 c-13 3 -38 6 -57 6 -27 0 -44 11 -95
60 -33 32 -78 72 -99 87 l-37 28 -6 270 c-3 149 -9 286 -15 306 -5 20 -6 65
-3 100 4 35 7 91 8 124 1 82 14 88 166 81 63 -4 125 -9 138 -12 l22 -6 0 1481
0 1481 -30 0 c-27 0 -30 -3 -30 -34 0 -25 -7 -40 -25 -54 -13 -11 -21 -22 -17
-26 3 -4 0 -11 -8 -16 -13 -8 -13 -11 2 -22 21 -16 21 -18 13 -438 -3 -173
-10 -345 -15 -382 -6 -37 -12 -109 -15 -160 -6 -108 -22 -198 -36 -198 -5 0
-9 -6 -9 -12 0 -7 -14 -31 -30 -52 -17 -22 -30 -44 -30 -49 0 -5 -10 -29 -22
-54 -15 -29 -24 -39 -30 -31 -6 10 -8 9 -8 -2 0 -9 -9 -16 -20 -16 -11 0 -20
3 -20 7 0 4 -7 15 -16 24 -14 14 -17 47 -21 203 -2 103 -2 230 -1 282 1 52 2
147 1 210 -5 254 -2 414 6 419 4 4 11 30 14 60 4 30 13 61 22 71 8 9 15 24 15
34 0 9 4 14 10 11 6 -4 10 5 10 21 0 15 -3 25 -6 22 -9 -9 -44 30 -44 48 0 8
-7 22 -15 30 -17 17 -20 70 -5 79 33 20 -10 25 -236 25 -196 0 -244 -3 -237
-12 6 -9 5 -21 -3 -37 -11 -21 -13 -21 -22 -6 -7 14 -11 15 -17 4 -5 -7 -4
-14 3 -17 17 -5 15 -22 -2 -22 -8 0 -16 7 -20 15 -3 9 -18 15 -39 15 -29 0
-37 -5 -47 -30 -7 -17 -25 -37 -40 -45 -34 -17 -43 -38 -41 -88 2 -20 0 -51
-4 -67 -5 -25 -11 -30 -26 -25 -11 4 -19 3 -18 -2 5 -19 -23 -65 -42 -70 -15
-4 -17 -8 -8 -14 10 -6 7 -13 -12 -28 l-24 -19 -10 29 c-12 34 -25 29 -25 -10
0 -35 -12 -50 -36 -49 -12 1 -35 -9 -52 -22 -25 -20 -31 -33 -31 -63 -1 -21
-6 -47 -11 -58 -11 -20 -40 -27 -40 -9 0 16 -27 11 -34 -6 -3 -9 -6 -31 -6
-49 0 -19 -5 -46 -10 -60 -9 -23 -14 -26 -38 -20 -32 7 -52 30 -52 59 0 12 -7
34 -15 49 -15 29 -10 71 6 45 14 -22 10 31 -6 87 -8 28 -13 36 -10 19 5 -37
-3 -48 -22 -33 -10 9 -13 8 -13 -5 0 -9 -8 -16 -17 -16 -21 0 -24 26 -16 110
l6 55 9 -43 c5 -24 11 -42 13 -40 6 6 12 198 6 198 -16 -1 -27 -18 -29 -49 -1
-18 -7 -42 -13 -53 -7 -13 -9 -68 -4 -160 3 -81 2 -138 -3 -134 -7 4 -30 -126
-35 -201 -1 -26 -2 -27 -29 -12 -16 9 -19 8 -13 -2 5 -7 -4 -4 -18 7 -30 22
-35 37 -10 27 13 -5 11 0 -6 18 -13 13 -27 35 -32 48 -5 13 -12 21 -15 18 -7
-7 -44 24 -44 38 0 5 5 3 10 -5 7 -12 9 -10 7 7 0 12 -5 19 -9 17 -11 -7 -10
25 2 64 6 17 14 45 19 60 6 19 5 34 -3 44 -9 13 -12 9 -12 -22 -1 -21 -11 -54
-23 -73 -13 -21 -19 -42 -15 -53 7 -18 6 -18 -12 -1 -18 17 -19 33 -17 248 2
194 0 231 -12 236 -19 7 -19 40 -1 75 11 21 36 113 36 133 0 3 -23 5 -51 5
l-50 0 6 -82 c4 -46 11 -102 16 -126 13 -59 10 -401 -3 -378 -5 10 -8 40 -6
67 1 27 0 49 -4 49 -5 0 -8 -25 -8 -55 0 -30 -4 -55 -9 -55 -5 0 -7 9 -4 19 3
11 0 28 -6 38 -9 15 -10 12 -11 -19 0 -21 -4 -38 -10 -38 -5 0 -10 4 -10 9 0
5 -11 9 -24 9 -14 0 -44 14 -68 31 -33 25 -48 44 -63 89 -16 45 -26 58 -44 60
-13 2 -21 -1 -17 -6 3 -5 0 -15 -8 -21 -10 -8 -15 -5 -24 14 -7 14 -7 27 -2
30 5 3 6 13 3 22 -6 15 -7 14 -14 -3 -6 -16 -8 -14 -8 9 -1 16 3 26 8 23 5 -4
7 3 4 14 -3 12 2 29 12 40 27 29 9 37 -20 10 -31 -29 -33 -15 -2 18 12 14 16
22 10 18 -17 -9 -17 16 -1 32 9 9 9 12 -3 12 -12 0 -14 8 -11 30 2 17 8 30 13
30 5 0 9 8 9 18 0 14 -2 15 -10 2 -12 -19 -23 -7 -27 32 -4 42 -10 58 -22 58
-8 0 -21 -47 -22 -82 0 -10 -7 -18 -15 -18 -16 0 -19 -17 -3 -22 6 -2 12 -29
12 -60 1 -31 5 -59 9 -63 8 -9 -13 -45 -26 -45 -5 0 -1 10 10 21 13 15 14 20
5 17 -25 -8 -37 -36 -25 -56 9 -14 9 -24 -1 -43 -12 -21 -14 -22 -20 -7 -4 10
-11 15 -17 12 -5 -3 -4 -11 2 -19 8 -10 8 -20 2 -32 -9 -16 -11 -15 -17 9 -7
26 8 66 29 80 8 5 8 10 -1 19 -18 18 -50 -22 -58 -72 -4 -24 -13 -56 -21 -70
-13 -27 -44 -47 -44 -29 0 6 5 10 11 10 7 0 1 10 -13 23 -19 18 -23 28 -17 49
5 19 3 28 -7 32 -10 4 -12 14 -8 31 5 20 3 24 -10 19 -9 -3 -16 -2 -16 4 0 6
4 12 9 14 6 2 12 31 14 65 3 35 10 70 17 78 7 9 9 22 4 32 -4 10 -8 20 -9 23
-1 3 -7 18 -13 33 -7 16 -10 33 -6 38 3 5 -4 9 -15 9 -22 0 -28 -14 -10 -25 6
-5 4 -16 -7 -32 -9 -14 -18 -45 -19 -69 -2 -23 -6 -48 -10 -54 -8 -13 11 -30
34 -30 10 0 11 -3 2 -13 -6 -8 -12 -31 -13 -53 -2 -21 -7 -43 -13 -47 -6 -5 0
-7 12 -4 20 4 21 3 12 -15 -6 -10 -18 -22 -27 -25 -9 -3 -27 -18 -40 -32 -13
-14 -21 -19 -19 -11 2 8 -2 23 -11 33 -8 9 -10 17 -4 17 6 0 12 -5 14 -12 3
-7 10 -8 17 -3 11 6 10 10 -3 17 -21 12 -21 29 1 21 11 -4 14 -3 9 6 -5 7 -16
9 -29 5 -12 -3 -19 -3 -15 1 4 5 3 14 -3 21 -7 8 -7 14 1 19 5 3 10 11 10 16
0 5 -11 2 -24 -6 -23 -15 -24 -15 -22 9 1 20 5 25 21 21 17 -4 16 -3 -2 6 -28
14 -29 25 -5 38 15 9 15 12 2 20 -16 11 -16 12 -18 114 l-2 67 -35 0 -36 0 5
-130z m2127 -168 c0 -24 1 -25 8 -7 5 11 9 -103 10 -253 1 -150 -1 -277 -5
-284 -4 -6 -9 -63 -11 -127 -2 -63 -8 -120 -13 -125 -6 -6 -10 -28 -10 -51 0
-22 -3 -58 -7 -80 -6 -36 -7 -38 -14 -15 l-7 25 -1 -27 c-1 -21 -7 -29 -28
-34 -15 -4 -37 -18 -49 -31 -12 -12 -26 -23 -31 -23 -6 0 -22 -11 -37 -25 -19
-18 -38 -25 -67 -25 -21 0 -39 -4 -39 -10 0 -5 10 -10 22 -10 15 0 19 -3 12
-10 -13 -13 -42 -19 -129 -27 -38 -3 -76 -10 -82 -15 -7 -6 -20 -8 -28 -4 -10
3 -25 -4 -39 -19 -21 -22 -25 -23 -36 -10 -8 10 -17 12 -24 6 -6 -5 -29 -14
-50 -20 -33 -9 -41 -8 -53 7 -11 15 -12 13 -3 -10 5 -15 6 -27 2 -27 -24 4
-31 -6 -34 -48 -3 -45 -4 -43 -8 19 -3 36 -2 64 3 61 13 -8 8 16 -17 78 -14
33 -22 67 -19 76 4 10 2 14 -4 10 -13 -8 -22 35 -17 83 3 30 2 32 -5 10 l-9
-25 -1 27 c-1 14 -5 28 -11 30 -5 2 -13 18 -16 37 -5 24 -4 32 4 27 7 -4 13 3
17 19 3 14 7 36 10 49 5 23 52 56 79 56 13 0 36 46 36 71 0 10 8 24 18 31 10
7 27 27 38 43 10 17 21 32 24 35 15 14 40 62 36 68 -3 5 6 20 20 35 13 14 24
32 25 39 0 11 2 11 6 0 4 -10 8 -10 19 -1 8 6 14 15 14 20 0 15 52 69 67 69 7
0 26 18 43 41 16 23 49 54 72 69 60 40 78 56 78 67 0 6 17 10 38 9 31 -1 38 3
40 21 2 12 19 36 38 53 19 16 29 30 22 30 -17 0 0 14 46 39 45 23 56 20 57
-17z m-2031 -22 c0 -5 -2 -10 -4 -10 -3 0 -8 5 -11 10 -3 6 -1 10 4 10 6 0 11
-4 11 -10z m13 -85 c-3 -9 -8 -14 -10 -11 -3 3 -2 9 2 15 9 16 15 13 8 -4z
m507 -10 c0 -9 7 -29 15 -45 19 -38 15 -38 -25 0 -19 18 -30 36 -26 45 7 20
36 19 36 0z m-453 -12 c-4 -3 -1 -13 6 -22 11 -14 10 -14 -5 -2 -16 12 -16 31
-1 31 4 0 3 -3 0 -7z m-244 -43 c3 -11 1 -18 -4 -14 -5 3 -9 12 -9 20 0 20 7
17 13 -6z m74 6 c0 -8 -6 -12 -14 -9 -9 4 -11 0 -7 -11 3 -9 1 -16 -6 -16 -6
0 -8 5 -4 12 5 8 2 9 -9 5 -25 -10 -20 8 6 21 30 14 34 14 34 -2z m363 4 c0
-5 -8 -10 -17 -10 -15 0 -16 2 -3 10 19 12 20 12 20 0z m537 -62 c-2 -13 -4
-3 -4 22 0 25 2 35 4 23 2 -13 2 -33 0 -45z m-1909 -4 c6 -59 -42 -82 -66 -30
-11 24 1 48 28 59 25 9 35 2 38 -29z m848 -20 c-4 -13 -11 -24 -17 -24 -6 0
-7 5 -4 10 3 6 1 10 -4 10 -19 0 -12 -22 9 -27 11 -3 20 -12 20 -20 0 -8 -4
-12 -9 -9 -5 3 -9 0 -8 -7 1 -38 -5 -57 -18 -57 -8 0 -15 -4 -15 -10 0 -5 -4
-10 -10 -10 -5 0 -7 8 -3 18 5 13 3 14 -7 5 -8 -8 -9 -16 -2 -28 7 -14 3 -25
-19 -48 -16 -16 -29 -33 -29 -37 0 -4 -16 -18 -35 -31 -30 -21 -52 -59 -47
-82 1 -4 -3 -17 -8 -28 -11 -19 -9 -19 23 3 19 12 33 28 30 35 -3 7 0 13 6 13
6 0 11 -6 11 -12 1 -7 7 -2 15 12 8 14 14 19 15 13 0 -14 -22 -39 -56 -64 -10
-8 -32 -29 -47 -47 -15 -19 -27 -29 -27 -22 0 7 -6 8 -19 0 -15 -7 -23 -6 -35
5 -8 8 -19 15 -25 15 -6 0 -11 2 -11 4 0 2 -3 12 -7 22 -4 12 -3 15 5 10 7 -4
12 -3 12 3 0 5 -9 13 -21 16 -16 5 -19 13 -15 33 2 15 8 48 11 74 5 38 13 53
39 73 56 43 91 16 66 -51 -6 -15 -8 -29 -6 -31 8 -9 56 49 56 67 0 26 57 83
75 76 8 -3 15 -1 15 4 0 6 -4 10 -10 10 -5 0 -10 7 -10 15 0 8 -4 15 -10 15
-5 0 -10 9 -10 20 0 21 27 40 59 40 14 0 21 6 21 20 0 13 7 20 19 20 11 0 22
10 26 23 6 19 8 20 12 4 3 -10 2 -29 -1 -43z m74 44 c0 -4 -4 -8 -9 -8 -6 0
-12 4 -15 8 -3 5 1 9 9 9 8 0 15 -4 15 -9z m295 2 c3 -5 1 -10 -4 -10 -6 0
-11 5 -11 10 0 6 2 10 4 10 3 0 8 -4 11 -10z m-295 -60 c0 -5 -2 -10 -4 -10
-3 0 -8 5 -11 10 -3 6 -1 10 4 10 6 0 11 -4 11 -10z m1000 -32 c0 -5 -4 -8
-10 -8 -5 0 -10 10 -10 23 0 18 2 19 10 7 5 -8 10 -18 10 -22z m370 23 c0 -5
-9 -11 -20 -14 -12 -3 -20 -14 -20 -26 0 -12 -4 -21 -10 -21 -5 0 -10 6 -10
14 0 8 -3 21 -6 29 -3 10 2 17 13 20 31 8 53 7 53 -2z m-982 -56 c-3 -3 -9 2
-12 12 -6 14 -5 15 5 6 7 -7 10 -15 7 -18z m607 -5 c3 -5 1 -10 -4 -10 -6 0
-11 5 -11 10 0 6 2 10 4 10 3 0 8 -4 11 -10z m-1968 -34 c-4 -9 -11 -16 -17
-16 -11 0 -14 33 -3 44 11 10 26 -11 20 -28z m1398 16 c-3 -3 -11 0 -18 7 -9
10 -8 11 6 5 10 -3 15 -9 12 -12z m-1255 -155 c0 -10 -9 -27 -20 -39 l-20 -22
0 52 c0 50 1 52 20 40 11 -7 20 -21 20 -31z m710 23 c0 -5 -5 -10 -11 -10 -5
0 -7 5 -4 10 3 6 8 10 11 10 2 0 4 -4 4 -10z m995 -40 c7 -32 14 -37 32 -19 8
8 14 6 22 -10 6 -11 17 -18 25 -15 8 3 17 0 21 -5 3 -6 10 -9 15 -6 11 7 70
-22 70 -33 0 -4 16 -23 35 -42 19 -19 43 -53 54 -75 10 -22 28 -49 40 -59 11
-11 21 -25 21 -31 0 -7 7 -18 15 -25 9 -7 14 -15 11 -17 -2 -3 0 -19 5 -36 10
-35 -6 -167 -24 -202 -6 -11 -11 -28 -12 -38 -1 -11 -8 -23 -16 -28 -11 -6
-11 -11 -1 -21 18 -18 15 -31 -8 -25 -13 3 -20 0 -20 -9 0 -8 6 -11 15 -8 8 4
15 2 15 -4 0 -6 -5 -12 -12 -14 -18 -6 13 -36 32 -31 11 3 18 -10 28 -49 6
-30 12 -60 11 -68 0 -16 -30 66 -31 88 -2 15 -15 16 -20 1 -2 -6 -35 12 -73
42 -39 29 -78 52 -88 51 -9 0 -15 3 -12 7 9 16 -277 6 -315 -11 -19 -8 -42
-13 -50 -11 -11 3 -12 2 -2 -4 9 -7 1 -17 -29 -36 -22 -15 -45 -27 -49 -27 -5
0 -10 -5 -12 -11 -6 -18 -42 -2 -81 36 -20 19 -40 35 -45 35 -6 0 -13 7 -16
16 -3 8 -10 12 -16 9 -5 -3 -10 -1 -10 5 0 6 -6 10 -14 8 -8 -2 -22 6 -30 17
-9 11 -16 14 -16 8 0 -19 -31 -16 -46 5 -12 16 -13 15 -14 -7 0 -18 -4 -22
-20 -18 -14 4 -20 0 -20 -11 0 -12 -3 -13 -8 -5 -12 20 -87 19 -107 -1 -10 -9
-30 -20 -46 -23 -16 -3 -29 -9 -29 -13 0 -5 -13 -11 -30 -15 -16 -4 -30 -11
-30 -15 0 -17 -62 -80 -79 -80 -14 0 -14 2 -1 10 13 9 13 10 0 11 -8 1 -18 1
-21 1 -3 -1 -3 12 -1 29 2 16 8 29 13 29 5 0 9 7 9 15 0 8 4 15 9 15 5 0 7 9
4 20 -3 11 1 30 9 42 12 20 12 27 -4 58 -11 19 -17 27 -14 18 6 -20 -12 -36
-19 -16 -2 7 -6 27 -9 43 -12 74 -21 85 -45 63 -11 -11 -13 -10 -8 5 4 11 1
20 -7 23 -33 13 -26 51 28 158 29 58 50 103 45 100 -5 -3 -9 2 -9 11 0 12 6
15 19 10 11 -3 23 0 27 6 5 8 2 10 -7 5 -8 -4 0 4 16 18 23 20 31 23 33 11 2
-8 8 -15 13 -15 6 0 8 4 5 9 -3 4 6 6 20 3 14 -2 49 6 82 21 31 14 69 24 84
22 16 -2 30 1 34 6 3 5 10 7 15 3 5 -3 7 -9 5 -13 -10 -16 30 -7 54 11 22 18
25 18 28 4 2 -9 8 -13 15 -9 25 15 56 11 62 -8 6 -19 50 -37 62 -25 4 3 -1 6
-10 6 -10 0 -17 8 -17 20 0 18 2 19 21 8 17 -10 23 -10 26 0 3 6 10 12 18 12
7 0 18 7 25 15 15 18 -1 21 -30 5 -12 -6 -21 -7 -25 0 -3 5 7 12 22 16 15 4
33 11 40 16 7 5 17 7 23 3 5 -3 13 0 16 8 3 8 15 15 27 15 12 0 55 3 96 8 53
5 72 4 67 -4 -12 -19 11 -22 28 -3 10 11 28 18 42 16 15 -1 24 3 24 11 0 26
18 14 25 -16z m-1820 -14 c13 -10 20 -30 23 -72 4 -55 6 -59 30 -61 36 -2 54
-30 50 -80 -2 -29 2 -44 13 -51 15 -10 39 -74 39 -105 0 -8 -9 -25 -19 -38
-18 -23 -20 -23 -38 -6 -11 9 -24 17 -29 17 -12 0 -39 31 -40 48 -2 29 -5 33
-14 27 -17 -10 -11 -51 10 -70 20 -18 60 -129 60 -165 0 -24 -39 -46 -72 -42
-27 3 -33 15 -29 50 1 8 -3 20 -9 27 -8 10 -8 19 2 34 10 17 10 25 0 42 -10
16 -10 24 -1 35 15 18 -4 44 -32 44 -18 0 -21 7 -33 72 -4 20 13 28 60 28 41
0 38 20 -7 37 -16 6 -28 15 -27 20 1 4 -6 23 -16 42 -17 32 -17 37 -1 95 24
87 40 101 80 72z m2083 -11 c-3 -3 -9 2 -12 12 -6 14 -5 15 5 6 7 -7 10 -15 7
-18z m-608 5 c0 -5 -7 -10 -16 -10 -8 0 -12 5 -9 10 3 6 10 10 16 10 5 0 9 -4
9 -10z m-1650 -50 c0 -5 -2 -10 -4 -10 -3 0 -8 5 -11 10 -3 6 -1 10 4 10 6 0
11 -4 11 -10z m642 -44 c16 -23 37 -92 38 -126 0 -8 -10 -27 -22 -40 -13 -14
-24 -32 -26 -40 -5 -23 -33 -50 -52 -50 -27 0 -41 24 -42 70 0 45 5 55 30 55
14 0 17 10 18 50 1 51 17 105 31 105 5 0 16 -11 25 -24z m1708 14 c8 -5 11
-10 5 -10 -5 0 -17 5 -25 10 -8 5 -10 10 -5 10 6 0 17 -5 25 -10z m150 -56
c12 -30 -4 -57 -35 -62 -15 -2 -17 -1 -6 7 11 7 11 15 3 40 -7 18 -7 29 -2 26
6 -4 10 -1 10 4 0 21 21 11 30 -15z m-1938 -288 c3 -14 2 -30 -3 -37 -11 -19
-39 7 -39 37 0 33 36 33 42 0z m-985 -168 c-3 -8 -6 -5 -6 6 -1 11 2 17 5 13
3 -3 4 -12 1 -19z m957 -20 c9 -36 7 -70 -4 -63 -6 4 -19 24 -30 46 l-20 39
24 0 c16 0 26 -7 30 -22z m-401 -2 c21 -16 40 -77 28 -89 -8 -8 -71 76 -71 95
0 12 23 9 43 -6z m2557 -76 c0 -5 -4 -10 -9 -10 -6 0 -13 5 -16 10 -3 6 1 10
9 10 9 0 16 -4 16 -10z m-363 -22 c-3 -8 -6 -5 -6 6 -1 11 2 17 5 13 3 -3 4
-12 1 -19z m-2247 -47 c0 -17 5 -33 10 -36 15 -9 12 -32 -5 -39 -20 -7 -47 46
-39 79 9 35 34 32 34 -4z m495 -8 c-3 -33 -17 -53 -36 -53 -25 0 -24 19 4 47
27 27 35 28 32 6z m106 -60 c-10 -17 -10 -16 -11 3 0 23 13 41 18 25 2 -6 -1
-18 -7 -28z m-848 -84 c-5 -5 -24 -12 -43 -15 -29 -6 -33 -4 -22 7 6 7 12 30
12 51 0 34 3 38 25 38 16 0 26 6 27 18 1 9 3 -7 5 -37 2 -30 0 -58 -4 -62z
m1524 84 c-14 -4 -17 -11 -13 -31 3 -15 1 -34 -4 -42 -9 -13 -11 -13 -20 0 -5
8 -10 27 -10 42 0 17 -6 28 -17 31 -10 3 5 5 32 5 28 0 42 -2 32 -5z m525 -7
c-24 -6 -41 -14 -37 -18 4 -3 2 -15 -4 -25 -10 -17 -11 -17 -17 5 -7 25 -15
27 -32 10 -8 -8 -12 -8 -12 -1 0 18 24 31 65 36 71 7 81 5 37 -7z m-906 -32
c-9 -8 -16 -11 -16 -5 0 18 5 26 13 24 4 -2 7 3 8 10 0 9 2 9 6 0 2 -7 -3 -20
-11 -29z m507 29 c-7 -2 -19 -2 -25 0 -7 3 -2 5 12 5 14 0 19 -2 13 -5z m854
1 c-3 -3 -12 -4 -19 -1 -8 3 -5 6 6 6 11 1 17 -2 13 -5z m-2222 -26 c15 -13
24 -30 23 -44 -2 -23 -3 -23 -28 -7 -58 38 -65 59 -23 72 2 1 14 -9 28 -21z
m2472 -20 c-3 -8 -6 -5 -6 6 -1 11 2 17 5 13 3 -3 4 -12 1 -19z m-1977 -32 c0
-5 -7 -3 -15 4 -8 7 -12 17 -9 22 7 10 24 -9 24 -26z m1740 30 c0 -3 -4 -8
-10 -11 -5 -3 -10 -1 -10 4 0 6 5 11 10 11 6 0 10 -2 10 -4z m-1380 -10 c0 -3
-4 -8 -10 -11 -5 -3 -10 -1 -10 4 0 6 5 11 10 11 6 0 10 -2 10 -4z m-1230 -34
c17 -16 18 -22 7 -45 -16 -37 -43 -31 -40 8 5 64 5 63 33 37z m2606 -43 c-3
-27 0 -49 5 -49 5 0 9 -4 9 -9 0 -16 -39 -19 -57 -5 -17 13 -17 13 3 14 12 0
24 7 28 15 3 9 0 15 -10 15 -15 0 -15 2 0 24 9 14 13 33 9 42 -4 12 -3 15 5
10 8 -4 10 -25 8 -57z m-609 22 c7 -9 13 -22 13 -30 0 -11 -5 -10 -20 4 -10 9
-26 15 -35 11 -13 -5 -10 -12 17 -40 18 -19 48 -63 67 -98 19 -34 42 -69 53
-76 10 -7 24 -25 32 -40 8 -15 32 -46 55 -69 39 -39 47 -62 43 -116 -1 -12 10
-23 33 -33 26 -11 35 -20 35 -39 0 -13 5 -27 11 -31 8 -4 7 -9 -2 -15 -12 -8
-12 -10 0 -18 7 -5 11 -14 7 -20 -4 -6 1 -25 10 -42 21 -42 11 -48 -86 -49
-41 -1 -84 -1 -95 -1 -11 -1 -56 -5 -100 -10 -71 -9 -86 -7 -135 10 l-55 21
70 -6 c67 -5 74 -4 140 31 39 20 78 46 88 58 23 29 58 99 52 105 -9 9 -110 9
-127 0 -11 -5 -25 -5 -38 2 -16 9 -18 8 -14 -5 7 -16 -11 -21 -21 -5 -3 5 -12
7 -20 3 -8 -3 -15 -1 -15 5 0 10 -67 28 -85 22 -5 -1 -26 -4 -45 -5 -19 -2
-35 -4 -35 -5 0 -9 -51 -7 -68 2 -12 7 -25 11 -29 10 -5 -1 -8 13 -8 31 0 37
27 69 71 86 17 6 34 25 45 50 10 23 26 44 36 47 25 8 20 50 -5 48 -21 -2 -21
0 -1 39 30 58 34 67 34 81 0 8 11 27 24 43 12 15 21 34 19 41 -5 14 36 32 57
24 8 -3 20 -13 27 -21z m84 2 c-8 -15 -10 -15 -11 -2 0 17 10 32 18 25 2 -3
-1 -13 -7 -23z m-859 -16 c3 -29 1 -33 -15 -29 -13 3 -15 7 -7 12 9 6 9 9 -1
12 -12 4 -12 7 0 21 18 22 18 22 23 -16z m25 1 c-3 -7 -5 -2 -5 12 0 14 2 19
5 13 2 -7 2 -19 0 -25z m1533 0 c0 -5 -11 -1 -25 8 -14 9 -25 18 -25 20 0 2
11 -2 25 -8 14 -6 25 -15 25 -20z m-1690 7 c-7 -8 -17 -15 -23 -15 -6 0 -2 7
9 15 25 19 30 19 14 0z m549 -7 c19 -20 19 -22 3 -34 -29 -22 -38 -16 -34 21
2 19 6 35 8 35 2 0 12 -10 23 -22z m591 -8 c0 -22 -4 -28 -15 -24 -18 7 -19
26 -3 42 17 17 18 16 18 -18z m167 15 c3 -9 -3 -25 -12 -35 -11 -12 -13 -20
-6 -20 9 0 8 -4 -1 -14 -7 -8 -17 -12 -22 -9 -4 3 -2 9 5 14 12 7 11 9 0 9
-12 0 -12 3 -3 12 7 7 12 22 12 35 0 26 18 31 27 8z m-837 1 c0 -3 -4 -8 -10
-11 -5 -3 -10 -1 -10 4 0 6 5 11 10 11 6 0 10 -2 10 -4z m232 -28 c-7 -7 -12
-8 -12 -2 0 14 12 26 19 19 2 -3 -1 -11 -7 -17z m1131 -2 c26 -28 44 -94 52
-186 l5 -65 -15 60 c-8 33 -12 66 -10 73 5 15 -22 73 -39 84 -24 16 -54 6 -83
-27 -17 -19 -33 -41 -36 -50 -9 -21 -27 -19 -27 3 0 14 2 15 10 2 5 -8 10 -12
10 -7 0 4 -6 16 -12 27 -15 23 -4 47 28 64 10 6 26 19 34 28 21 25 57 22 83
-6z m-1441 -24 c5 -16 2 -17 -17 -8 -24 11 -24 26 -1 26 8 0 16 -8 18 -18z
m932 -24 c-3 -4 0 -8 6 -8 6 0 13 6 16 14 6 17 40 10 48 -10 6 -17 -12 -26
-54 -28 -17 0 -30 -4 -30 -8 0 -5 -4 -8 -10 -8 -5 0 -10 7 -10 15 0 8 6 15 13
15 8 0 7 4 -3 10 -10 6 -11 10 -2 10 6 0 12 8 12 18 0 14 2 15 9 2 6 -8 7 -18
5 -22z m101 -8 c3 -5 1 -10 -4 -10 -6 0 -11 5 -11 10 0 6 2 10 4 10 3 0 8 -4
11 -10z m-1546 -19 c8 -5 16 -19 18 -31 3 -20 2 -20 -19 -6 -31 22 -54 20 -72
-6 -15 -20 -16 -21 -16 -4 0 43 53 70 89 47z m821 -32 c-10 -53 -29 -73 -27
-28 2 26 22 69 33 69 1 0 -2 -18 -6 -41z m300 25 c0 -8 4 -13 9 -10 5 3 14 -1
21 -9 7 -8 19 -15 26 -15 8 0 14 -3 14 -7 0 -5 21 -17 47 -27 43 -18 53 -18
137 -7 50 7 105 16 121 19 28 6 27 7 -15 12 l-45 6 60 13 c33 7 66 15 75 18 9
3 11 2 5 -4 -6 -4 -21 -23 -34 -41 -24 -34 -23 -51 1 -36 7 5 20 9 28 9 8 0
14 5 13 11 -1 7 6 14 17 17 16 4 17 2 9 -20 l-9 -26 26 24 c14 13 34 32 44 41
17 15 19 15 33 0 25 -28 55 -145 62 -234 12 -175 13 -208 4 -214 -5 -3 -9 -10
-9 -16 0 -6 9 -3 20 7 12 10 19 24 16 31 -3 7 4 14 15 17 19 5 27 27 9 27 -5
0 -10 7 -10 15 0 11 7 13 29 9 16 -3 31 -2 35 4 3 5 6 43 7 84 1 76 -16 135
-38 131 -6 -1 -14 9 -17 22 -4 14 -11 25 -16 25 -20 0 -9 31 25 68 19 22 32
42 28 46 -3 3 -2 6 4 6 13 0 33 -45 33 -75 0 -14 7 -43 16 -65 11 -27 14 -54
10 -82 -9 -59 -16 -139 -9 -108 3 14 8 27 12 30 3 3 17 26 30 53 13 26 26 46
28 43 2 -2 -3 -28 -11 -57 -8 -30 -24 -87 -35 -128 -12 -41 -21 -101 -21 -133
0 -70 -18 -148 -34 -149 -52 -6 -67 11 -85 92 -15 64 -31 72 -25 12 3 -28 2
-34 -6 -23 -6 9 -10 10 -10 3 0 -6 5 -15 11 -19 7 -4 9 -21 4 -48 -4 -22 -7
-51 -6 -63 0 -13 -4 -23 -10 -23 -5 0 -7 5 -3 12 5 7 2 9 -8 5 -17 -6 -48 21
-48 41 0 7 -7 9 -17 5 -15 -5 -16 -3 -6 7 10 11 10 17 0 28 -9 12 -9 16 1 19
6 3 12 13 12 23 0 11 7 23 16 28 14 8 13 10 -5 15 -12 3 -21 0 -21 -6 0 -6 -3
-8 -6 -5 -3 3 1 16 8 28 11 18 11 22 -5 31 -9 6 -15 15 -12 20 4 5 11 7 16 4
15 -10 10 12 -6 25 -18 15 -19 14 -34 -25 l-11 -30 5 36 c4 26 1 40 -11 50
-15 12 -16 11 -9 -11 7 -23 6 -24 -7 -6 -8 10 -27 19 -43 19 -19 0 -41 12 -70
41 -63 61 -109 98 -119 94 -5 -2 -13 7 -17 20 -5 13 -13 21 -18 17 -6 -3 -14
2 -18 10 -5 8 -18 17 -29 19 -10 3 -36 12 -56 20 -34 15 -37 19 -35 52 2 34 0
37 -26 40 -32 3 -60 22 -52 34 3 5 0 10 -6 12 -14 5 -22 88 -9 88 6 0 10 -7
10 -16z m-33 -26 c-3 -8 -6 -5 -6 6 -1 11 2 17 5 13 3 -3 4 -12 1 -19z m310
16 c-3 -3 -12 -4 -19 -1 -8 3 -5 6 6 6 11 1 17 -2 13 -5z m-1015 -36 c-5 -22
-12 -22 -46 -5 -31 17 -28 22 17 23 28 0 33 -3 29 -18z m-98 -62 c26 -14 60
-26 76 -26 22 0 28 -4 24 -15 -7 -18 -1 -18 49 -4 30 8 42 7 59 -6 12 -8 30
-15 40 -15 10 0 18 -4 18 -9 0 -6 8 -10 18 -11 53 -4 95 0 108 11 20 17 25 8
8 -16 -8 -10 -27 -19 -42 -20 -27 -1 -29 -5 -17 -37 4 -10 -1 -23 -12 -33 -10
-9 -40 -36 -66 -60 -26 -25 -51 -45 -55 -45 -4 0 -24 4 -44 9 -21 5 -38 6 -38
2 0 -3 -7 -14 -14 -24 -12 -16 -18 -17 -37 -7 -19 10 -24 10 -34 -4 -7 -9 -20
-16 -29 -16 -13 0 -16 -5 -11 -20 5 -16 2 -20 -15 -20 -14 0 -20 5 -17 13 4
10 -2 13 -19 9 -13 -2 -24 -11 -24 -18 0 -8 -5 -14 -11 -14 -5 0 -9 12 -8 28
4 47 -1 73 -11 67 -5 -3 -10 1 -10 9 0 9 5 16 10 16 6 0 10 5 10 11 0 5 -4 7
-10 4 -14 -8 -13 160 1 225 10 45 13 50 34 46 13 -2 44 -16 69 -30z m190 -2
c20 -3 33 -10 30 -15 -3 -5 10 -9 28 -10 27 0 29 -2 13 -9 -13 -5 -28 -3 -42
6 -12 8 -31 14 -42 14 -27 0 -51 10 -51 22 0 6 6 8 14 5 8 -3 31 -9 50 -13z
m363 -26 c-3 -8 -6 -5 -6 6 -1 11 2 17 5 13 3 -3 4 -12 1 -19z m-202 2 c4 -6
-9 -10 -32 -10 -28 0 -34 3 -23 10 20 13 47 13 55 0z m-545 -50 c0 -5 -7 -10
-15 -10 -8 0 -15 5 -15 10 0 6 7 10 15 10 8 0 15 -4 15 -10z m-83 -122 c-3 -8
-6 -5 -6 6 -1 11 2 17 5 13 3 -3 4 -12 1 -19z m32 -133 c1 -16 -1 -17 -9 -5
-5 8 -9 31 -9 50 l1 35 8 -30 c4 -16 8 -39 9 -50z m412 28 c13 -15 12 -15 -8
-4 -24 12 -29 21 -14 21 5 0 15 -7 22 -17z m-353 -90 c-6 -7 -6 -18 -2 -25 4
-7 4 -10 0 -6 -5 4 -19 -5 -32 -19 -18 -19 -24 -37 -24 -69 0 -41 1 -42 28
-35 17 5 28 15 30 29 2 12 7 20 11 17 5 -2 11 10 15 27 6 28 8 30 21 17 20
-20 3 -70 -41 -123 l-31 -37 -26 38 c-23 33 -26 48 -25 105 1 58 3 65 14 50
12 -16 13 -16 19 1 4 9 5 31 3 47 -3 21 0 30 11 32 20 4 41 -32 29 -49z m142
-7 c-5 -5 -10 -20 -10 -33 0 -15 -5 -21 -14 -17 -14 6 -16 50 -2 72 6 10 11
10 22 1 10 -8 12 -15 4 -23z m-90 5 c0 -6 -4 -13 -10 -16 -5 -3 -10 1 -10 9 0
9 5 16 10 16 6 0 10 -4 10 -9z m24 -66 c5 -22 4 -26 -4 -15 -5 8 -10 24 -10
34 0 26 6 18 14 -19z m554 6 c10 -6 8 -10 -10 -14 -41 -12 -54 -8 -32 8 22 17
25 17 42 6z m-526 -36 c-2 -14 -6 -25 -8 -25 -2 0 -4 11 -4 25 0 14 4 25 9 25
4 0 6 -11 3 -25z m1368 -14 c0 -5 -9 -7 -20 -4 -11 3 -20 7 -20 9 0 2 9 4 20
4 11 0 20 -4 20 -9z m61 -23 c10 -13 18 -26 19 -30 0 -4 12 -19 26 -33 14 -14
23 -29 20 -33 -4 -3 -12 0 -17 8 -8 11 -12 12 -16 3 -8 -20 -21 -15 -26 10
l-4 22 -8 -22 c-4 -13 -11 -20 -16 -17 -5 3 -9 1 -9 -4 0 -5 9 -12 20 -15 20
-5 28 -27 10 -27 -5 0 -10 5 -10 12 0 23 -11 0 -15 -31 -2 -19 0 -29 5 -26 6
4 10 2 10 -3 0 -19 -13 -20 -33 -1 -24 22 -33 24 -43 7 -5 -8 -2 -9 11 -4 15
5 16 4 5 -9 -7 -9 -9 -19 -5 -23 4 -4 10 -1 12 6 4 10 8 10 19 1 8 -6 14 -16
14 -21 0 -6 -7 -5 -15 2 -10 9 -15 9 -15 1 0 -20 -18 -12 -26 11 l-7 22 -17
-22 c-18 -22 -33 -20 -24 3 3 7 -4 20 -16 28 l-22 15 21 7 c23 7 28 21 9 28
-7 2 -11 7 -8 10 3 3 14 -2 25 -10 15 -12 17 -17 6 -20 -11 -5 -11 -7 0 -15
10 -6 6 -7 -11 -3 -22 5 -23 4 -7 -5 13 -9 22 -9 32 0 13 10 13 16 0 40 -8 15
-11 31 -7 35 4 5 -1 5 -10 2 -15 -5 -16 -3 -6 18 6 14 14 25 18 25 4 0 10 14
14 30 3 17 10 30 16 30 14 0 12 -22 -5 -44 -17 -22 -21 -91 -5 -81 6 4 9 9 6
13 -2 4 1 16 5 27 9 19 9 19 6 -1 -3 -13 3 -25 14 -33 12 -7 19 -7 19 -1 0 5
-6 10 -12 11 -10 0 -10 2 0 6 6 2 12 11 12 18 0 8 7 18 14 22 12 6 13 17 7 46
-10 43 -6 46 20 15z m-1381 -42 c0 -6 -7 -2 -15 8 -15 20 -15 20 -30 0 -14
-18 -14 -17 -4 9 12 26 13 26 31 11 10 -10 18 -22 18 -28z m1010 9 c0 -7 -13
-18 -30 -24 -16 -5 -30 -16 -30 -23 0 -8 3 -9 8 -3 4 6 32 10 62 9 30 0 67 5
82 13 15 7 33 13 41 13 14 0 36 -34 40 -60 2 -8 5 -19 8 -25 11 -18 -10 -73
-29 -77 -11 -3 -22 -15 -25 -27 -4 -16 -2 -21 8 -17 16 6 42 -21 30 -32 -4 -4
-10 -1 -12 6 -8 20 -26 13 -20 -8 3 -11 1 -20 -5 -20 -6 0 -8 -7 -5 -15 4 -8
2 -17 -3 -20 -4 -3 -10 -1 -12 5 -2 6 -8 6 -18 0 -13 -8 -12 -10 3 -10 9 0 17
-5 17 -11 0 -6 7 -9 15 -5 19 7 21 -34 3 -52 -9 -9 -9 -12 0 -12 6 0 16 8 21
18 9 15 10 15 11 -5 0 -16 -8 -25 -25 -29 -14 -3 -25 -10 -25 -15 0 -5 -12 -6
-27 -3 -25 7 -27 6 -14 -10 18 -21 8 -31 -17 -17 -16 8 -21 7 -26 -5 -4 -9
-13 -14 -21 -10 -8 3 -15 1 -15 -4 0 -5 -7 -7 -15 -4 -10 4 -15 0 -16 -12 0
-16 -2 -15 -9 4 -8 18 -13 21 -28 13 -24 -13 -61 -10 -59 4 1 5 -7 9 -17 8
-11 -1 -26 6 -33 15 -12 15 -13 14 -11 -12 2 -18 -2 -31 -11 -34 -10 -3 -12 0
-8 12 4 9 2 16 -3 16 -6 0 -10 9 -10 20 0 11 -4 20 -10 20 -5 0 -10 -4 -10
-10 0 -5 -5 -10 -11 -10 -6 0 -9 6 -6 14 4 9 -3 16 -17 20 -20 5 -33 46 -14
46 4 0 8 -9 8 -20 0 -17 2 -19 14 -8 10 9 11 17 4 25 -13 16 13 28 42 20 11
-3 20 0 21 6 0 8 2 8 6 0 2 -7 9 -13 14 -13 4 0 6 7 2 16 -4 11 -1 15 13 13
10 -2 30 1 44 6 28 10 35 11 67 13 12 1 24 11 28 22 4 12 16 30 28 41 19 17
20 21 7 29 -8 5 -23 10 -32 11 -10 1 -22 3 -28 4 -5 1 -14 3 -20 4 -5 0 -10 7
-10 14 0 9 -26 11 -111 9 -106 -4 -129 0 -179 29 -8 5 -26 14 -40 21 -25 12
-25 12 -2 15 12 3 29 -2 37 -10 13 -14 19 -13 54 4 22 10 56 19 75 19 19 0 38
5 41 10 4 6 -7 10 -25 10 -28 0 -31 3 -28 27 3 25 9 28 88 45 47 10 99 17 117
16 18 -1 35 1 39 5 9 9 24 -1 24 -18z m-396 8 c7 -7 24 -11 70 -15 31 -3 55
-43 36 -62 -16 -16 -82 -10 -97 10 -7 10 -13 12 -13 6 0 -15 -56 -16 -65 -2
-4 6 -15 8 -25 5 -10 -3 -21 -1 -25 5 -11 18 5 49 28 53 38 7 83 7 91 0z m736
-2 c0 -6 -4 -13 -10 -16 -5 -3 -10 1 -10 9 0 9 5 16 10 16 6 0 10 -4 10 -9z
m1613 -51 c21 -23 27 -40 25 -63 -2 -19 -8 -31 -15 -30 -7 2 -13 -1 -13 -7 0
-5 -7 -7 -15 -4 -8 4 -15 1 -15 -5 0 -6 -9 -11 -19 -11 -10 0 -22 -8 -25 -17
-6 -15 -8 -15 -16 -3 -8 13 -14 13 -41 -2 -37 -22 -50 -22 -142 -4 -40 8 -94
17 -122 21 -74 9 -85 14 -84 38 0 15 19 36 59 65 78 57 142 70 287 60 104 -7
109 -8 136 -38z m-2983 20 c0 -5 -5 -10 -11 -10 -5 0 -7 5 -4 10 3 6 8 10 11
10 2 0 4 -4 4 -10z m430 0 c0 -5 -4 -10 -10 -10 -5 0 -10 5 -10 10 0 6 5 10
10 10 6 0 10 -4 10 -10z m57 -7 c-9 -9 -20 -13 -24 -9 -4 4 -1 11 7 16 25 16
35 11 17 -7z m-457 -5 c0 -17 -18 -44 -24 -37 -8 7 5 49 15 49 5 0 9 -6 9 -12z
m-43 -40 c-3 -8 -6 -5 -6 6 -1 11 2 17 5 13 3 -3 4 -12 1 -19z m1511 -6 c2 -7
-3 -12 -12 -12 -9 0 -16 -8 -17 -17 -1 -12 -4 -10 -9 7 -4 14 -8 19 -9 13 -1
-15 -21 -18 -21 -3 0 12 39 30 54 26 6 -1 12 -8 14 -14z m31 -14 c0 -7 -4 -22
-9 -33 -6 -16 -8 -14 -7 13 0 17 4 32 9 32 4 0 8 -6 7 -12z m-1504 -8 c3 -5 1
-10 -4 -10 -6 0 -11 5 -11 10 0 6 2 10 4 10 3 0 8 -4 11 -10z m1415 -25 c7 -8
16 -12 21 -9 5 3 9 0 9 -5 0 -14 -17 -14 -25 -1 -3 6 -15 10 -26 10 -11 0 -17
5 -14 10 9 14 21 12 35 -5z m57 -7 c-3 -8 -6 -5 -6 6 -1 11 2 17 5 13 3 -3 4
-12 1 -19z m-1479 -49 c-3 -8 -7 -3 -11 10 -4 17 -3 21 5 13 5 -5 8 -16 6 -23z
m1482 22 c0 -5 -7 -14 -15 -21 -16 -14 -18 -10 -9 14 6 17 24 22 24 7z m-255
-21 c3 -5 1 -10 -4 -10 -6 0 -11 5 -11 10 0 6 2 10 4 10 3 0 8 -4 11 -10z
m-45 -10 c0 -5 -4 -10 -9 -10 -6 0 -13 5 -16 10 -3 6 1 10 9 10 9 0 16 -4 16
-10z m90 -75 c0 -3 -9 -5 -20 -5 -11 0 -20 7 -20 15 0 13 4 14 20 5 11 -6 20
-13 20 -15z m-80 -55 c0 -5 -4 -10 -10 -10 -5 0 -10 5 -10 10 0 6 5 10 10 10
6 0 10 -4 10 -10z m35 0 c3 -5 1 -10 -4 -10 -6 0 -11 5 -11 10 0 6 2 10 4 10
3 0 8 -4 11 -10z m-1142 -175 c6 -39 6 -40 -24 -41 -28 -1 -30 1 -26 30 2 17
9 30 16 28 6 -1 14 5 18 13 7 21 9 18 16 -30z m987 25 c0 -5 -7 -7 -15 -4 -8
4 -15 8 -15 10 0 2 7 4 15 4 8 0 15 -4 15 -10z m-117 -29 c3 -14 0 -17 -14
-14 -10 3 -15 11 -12 19 7 20 20 17 26 -5z m847 -50 c59 -13 174 -52 180 -61
3 -4 15 -12 28 -19 31 -16 58 -59 45 -72 -16 -16 -173 -17 -203 -2 -14 7 -35
13 -46 13 -12 0 -32 8 -45 18 -32 24 -127 73 -152 78 -26 5 -27 6 -21 31 4 16
15 23 38 25 51 5 128 0 176 -11z m-1787 -10 c6 -24 0 -31 -26 -31 -13 0 -17 5
-13 16 3 9 6 20 6 25 0 17 28 9 33 -10z m1217 -141 c0 -5 -4 -10 -10 -10 -5 0
-10 5 -10 10 0 6 5 10 10 10 6 0 10 -4 10 -10z m-1060 -170 c0 -5 -5 -10 -11
-10 -5 0 -7 5 -4 10 3 6 8 10 11 10 2 0 4 -4 4 -10z m2188 -131 c-2 -6 -8 -10
-13 -10 -5 0 -11 4 -13 10 -2 6 4 11 13 11 9 0 15 -5 13 -11z m-28 -40 c0 -18
-1 -18 -18 -1 -11 10 -14 20 -8 24 15 10 26 0 26 -23z m-2090 -24 c-7 -9 -15
-13 -18 -10 -3 2 1 11 8 20 7 9 15 13 18 10 3 -2 -1 -11 -8 -20z m-47 -19 c4
-10 1 -13 -9 -9 -7 3 -14 9 -14 14 0 14 17 10 23 -5z m65 -83 c16 -16 16 -16
-1 -10 -10 4 -23 7 -28 7 -5 0 -9 5 -9 10 0 15 20 12 38 -7z m-243 -3 c3 -5 1
-10 -4 -10 -6 0 -11 5 -11 10 0 6 2 10 4 10 3 0 8 -4 11 -10z m275 -30 c0 -5
-2 -10 -4 -10 -3 0 -8 5 -11 10 -3 6 -1 10 4 10 6 0 11 -4 11 -10z m-55 -390
c-3 -5 -12 -10 -18 -10 -7 0 -6 4 3 10 19 12 23 12 15 0z m91 -78 c-4 -3 -14
2 -24 12 -16 18 -16 18 6 6 13 -6 21 -14 18 -18z m147 -59 c-7 -2 -19 -2 -25
0 -7 3 -2 5 12 5 14 0 19 -2 13 -5z m2547 -73 c0 -5 -4 -10 -10 -10 -5 0 -10
5 -10 10 0 6 5 10 10 10 6 0 10 -4 10 -10z"/>
<path d="M3160 3090 c0 -5 5 -10 10 -10 6 0 10 5 10 10 0 6 -4 10 -10 10 -5 0
-10 -4 -10 -10z"/>
<path d="M2175 3670 c3 -5 10 -10 16 -10 5 0 9 5 9 10 0 6 -7 10 -16 10 -8 0
-12 -4 -9 -10z"/>
<path d="M2055 3556 c32 -14 41 -13 30 3 -3 6 -18 11 -33 11 l-27 -1 30 -13z"/>
<path d="M2065 3520 c-3 -5 -1 -10 4 -10 6 0 11 5 11 10 0 6 -2 10 -4 10 -3 0
-8 -4 -11 -10z"/>
<path d="M1866 3503 c-9 -10 -7 -53 3 -53 5 0 12 6 14 13 4 9 6 9 6 0 1 -7 8
-10 16 -7 22 9 18 24 -6 24 -11 0 -18 4 -14 9 6 11 -9 23 -19 14z"/>
<path d="M1900 3500 c0 -5 5 -10 11 -10 5 0 7 5 4 10 -3 6 -8 10 -11 10 -2 0
-4 -4 -4 -10z"/>
<path d="M1945 3490 c-3 -5 -1 -10 4 -10 6 0 11 5 11 10 0 6 -2 10 -4 10 -3 0
-8 -4 -11 -10z"/>
<path d="M1920 3434 c0 -8 5 -12 10 -9 6 3 10 10 10 16 0 5 -4 9 -10 9 -5 0
-10 -7 -10 -16z"/>
<path d="M1837 3411 c-4 -17 -3 -21 5 -13 5 5 8 16 6 23 -3 8 -7 3 -11 -10z"/>
<path d="M1856 3406 c-7 -27 0 -32 20 -16 10 9 18 10 22 3 12 -17 52 -23 52
-7 0 14 -12 18 -37 15 -7 -1 -13 4 -13 11 0 22 -38 16 -44 -6z"/>
<path d="M670 3460 c0 -5 5 -10 10 -10 6 0 10 5 10 10 0 6 -4 10 -10 10 -5 0
-10 -4 -10 -10z"/>
<path d="M2190 2749 c0 -5 5 -7 10 -4 6 3 10 8 10 11 0 2 -4 4 -10 4 -5 0 -10
-5 -10 -11z"/>
<path d="M2541 2226 c-8 -9 -11 -19 -7 -23 9 -9 29 13 24 27 -2 8 -8 7 -17 -4z"/>
<path d="M2570 2196 c0 -9 5 -16 10 -16 6 0 10 4 10 9 0 6 -4 13 -10 16 -5 3
-10 -1 -10 -9z"/>
<path d="M2590 2158 c0 -9 5 -20 10 -23 13 -8 13 5 0 25 -8 13 -10 13 -10 -2z"/>
<path d="M2391 2654 c0 -11 3 -14 6 -6 3 7 2 16 -1 19 -3 4 -6 -2 -5 -13z"/>
<path d="M2809 2583 c-12 -16 -12 -17 1 -7 8 6 22 14 30 17 13 5 12 6 -1 6 -9
1 -23 -7 -30 -16z"/>
<path d="M2755 2570 c-3 -5 -1 -10 4 -10 6 0 11 5 11 10 0 6 -2 10 -4 10 -3 0
-8 -4 -11 -10z"/>
<path d="M2977 2199 c-4 -16 -3 -18 9 -8 7 6 11 15 8 20 -8 13 -11 11 -17 -12z"/>
<path d="M2976 2161 c-17 -19 -17 -19 2 -14 12 3 23 11 26 19 8 20 -8 17 -28
-5z"/>
<path d="M3110 2136 c0 -2 8 -10 18 -17 15 -13 16 -12 3 4 -13 16 -21 21 -21
13z"/>
<path d="M2970 2060 c0 -5 5 -10 11 -10 5 0 7 5 4 10 -3 6 -8 10 -11 10 -2 0
-4 -4 -4 -10z"/>
<path d="M3017 2053 c-2 -5 -1 -19 3 -33 6 -24 7 -24 11 8 5 29 -4 44 -14 25z"/>
<path d="M2990 1995 c0 -8 5 -15 10 -15 6 0 10 7 10 15 0 8 -4 15 -10 15 -5 0
-10 -7 -10 -15z"/>
<path d="M1720 2516 c0 -7 9 -16 20 -19 24 -6 28 18 4 27 -22 8 -24 8 -24 -8z"/>
<path d="M1470 2425 c7 -9 15 -13 17 -11 7 7 -7 26 -19 26 -6 0 -6 -6 2 -15z"/>
<path d="M1480 2318 c0 -25 3 -29 10 -18 13 20 13 50 0 50 -5 0 -10 -15 -10
-32z"/>
<path d="M2425 1980 c-3 -5 1 -10 9 -10 9 0 16 5 16 10 0 6 -4 10 -9 10 -6 0
-13 -4 -16 -10z"/>
<path d="M2350 1963 c-13 -15 -12 -16 4 -10 10 4 27 7 37 7 11 0 17 5 14 10
-9 15 -38 11 -55 -7z"/>
<path d="M2627 1813 c-4 -3 -7 -11 -7 -17 0 -6 5 -5 12 2 6 6 9 14 7 17 -3 3
-9 2 -12 -2z"/>
<path d="M2595 1690 c-3 -5 1 -10 10 -10 9 0 13 5 10 10 -3 6 -8 10 -10 10 -2
0 -7 -4 -10 -10z"/>
<path d="M2525 1680 c3 -5 8 -10 11 -10 2 0 4 5 4 10 0 6 -5 10 -11 10 -5 0
-7 -4 -4 -10z"/>
<path d="M2615 1660 c-3 -5 3 -10 14 -10 12 0 21 5 21 10 0 6 -6 10 -14 10 -8
0 -18 -4 -21 -10z"/>
<path d="M2286 1641 c-4 -7 -5 -15 -2 -18 9 -9 19 4 14 18 -4 11 -6 11 -12 0z"/>
<path d="M2620 1620 c0 -5 5 -10 10 -10 6 0 10 5 10 10 0 6 -4 10 -10 10 -5 0
-10 -4 -10 -10z"/>
<path d="M1616 4364 c-9 -22 -8 -24 9 -24 8 0 15 9 15 20 0 24 -15 27 -24 4z"/>
<path d="M1541 4349 c-41 -8 -101 -50 -101 -71 0 -12 38 -10 45 3 4 6 13 8 21
5 8 -3 14 0 14 7 0 14 58 39 71 31 5 -3 9 4 9 15 0 12 -3 21 -7 20 -5 -1 -28
-5 -52 -10z"/>
<path d="M1670 4344 c0 -8 5 -12 10 -9 6 3 10 10 10 16 0 5 -4 9 -10 9 -5 0
-10 -7 -10 -16z"/>
<path d="M1271 4334 c0 -11 3 -14 6 -6 3 7 2 16 -1 19 -3 4 -6 -2 -5 -13z"/>
<path d="M1945 4250 c3 -5 10 -10 16 -10 5 0 9 5 9 10 0 6 -7 10 -16 10 -8 0
-12 -4 -9 -10z"/>
<path d="M1465 4228 c-14 -21 -14 -23 1 -26 19 -4 20 -4 28 26 4 13 3 22 -3
22 -5 0 -17 -10 -26 -22z"/>
<path d="M111 3602 c-14 -26 -7 -42 10 -25 6 6 9 19 7 29 -3 17 -5 17 -17 -4z"/>
<path d="M0 3479 c0 -5 5 -7 10 -4 5 3 10 8 10 11 0 2 -4 4 -10 4 -5 0 -10 -5
-10 -11z"/>
<path d="M12 3430 c-15 -25 -16 -60 -1 -60 6 0 9 6 6 13 -3 7 1 21 9 32 8 10
14 22 14 27 0 15 -15 8 -28 -12z"/>
<path d="M344 3395 c-9 -48 -1 -64 30 -58 21 4 26 11 26 34 0 19 -5 29 -15 29
-8 0 -15 7 -15 15 0 29 -19 14 -26 -20z"/>
<path d="M115 3360 c-3 -5 -1 -10 4 -10 6 0 11 5 11 10 0 6 -2 10 -4 10 -3 0
-8 -4 -11 -10z"/>
<path d="M0 3234 c0 -27 4 -43 10 -39 13 8 13 85 0 85 -5 0 -10 -21 -10 -46z"/>
<path d="M4327 1538 c4 -7 6 -70 5 -140 -2 -69 1 -128 5 -131 4 -3 65 -8 136
-12 l127 -7 0 151 0 151 -141 0 c-110 0 -138 -3 -132 -12z"/>
<path d="M1590 1354 c0 -8 5 -12 10 -9 6 3 10 10 10 16 0 5 -4 9 -10 9 -5 0
-10 -7 -10 -16z"/>
<path d="M3045 1053 c54 -59 63 -102 40 -203 -4 -18 -2 -15 9 9 19 39 21 123
5 154 -17 33 -51 67 -66 67 -9 0 -5 -10 12 -27z"/>
<path d="M3655 940 c-3 -5 1 -10 9 -10 9 0 16 5 16 10 0 6 -4 10 -9 10 -6 0
-13 -4 -16 -10z"/>
<path d="M1520 762 c0 -4 9 -8 19 -8 11 0 17 4 15 8 -7 10 -34 10 -34 0z"/>
<path d="M2450 744 c0 -8 5 -12 10 -9 6 4 8 11 5 16 -9 14 -15 11 -15 -7z"/>
<path d="M1567 724 c-7 -7 32 -74 44 -74 4 0 6 7 3 15 -4 8 -10 15 -16 15 -5
0 -7 3 -4 8 6 9 -19 44 -27 36z"/>
<path d="M2420 620 c0 -5 4 -10 9 -10 6 0 13 5 16 10 3 6 -1 10 -9 10 -9 0
-16 -4 -16 -10z"/>
<path d="M2543 443 c-18 -7 -16 -23 2 -23 8 0 15 7 15 15 0 8 -1 15 -2 14 -2
0 -9 -3 -15 -6z"/>
<path d="M2538 303 c7 -3 16 -2 19 1 4 3 -2 6 -13 5 -11 0 -14 -3 -6 -6z"/>
</g>
</svg>
